<svg width="200" height="200" viewBox="0 0 200 200" xmlns="http://www.w3.org/2000/svg">
  <!-- Irregular dalmatian spots matching #dalmatian-spots style -->
  <!-- Spot 1: top-left area -->
  <path d="M16 4 Q24 2 28 8 Q32 16 26 22 Q20 28 12 24 Q4 20 6 12 Q8 4 16 4" fill="#3d2b1f"/>
  <!-- Spot 2: top area -->
  <path d="M96 6 Q108 4 114 14 Q118 26 108 32 Q96 36 86 28 Q78 20 84 10 Q90 2 96 6" fill="#3d2b1f"/>
  <!-- Spot 3: top-right area -->
  <path d="M170 16 Q182 12 188 24 Q194 38 182 46 Q168 52 158 42 Q150 30 160 20 Q166 14 170 16" fill="#3d2b1f"/>
  <!-- Spot 4: upper-middle-left -->
  <path d="M38 52 Q50 48 56 60 Q62 74 50 82 Q36 88 26 76 Q18 62 28 54 Q34 48 38 52" fill="#3d2b1f"/>
  <!-- Spot 5: center-right area -->
  <path d="M154 68 Q168 64 176 78 Q184 94 170 104 Q154 112 142 98 Q132 82 144 70 Q150 64 154 68" fill="#3d2b1f"/>
  <!-- Spot 6: middle-left area -->
  <path d="M22 106 Q36 102 44 118 Q52 136 36 146 Q18 154 8 138 Q0 120 14 110 Q20 104 22 106" fill="#3d2b1f"/>
  <!-- Spot 7: center area -->
  <path d="M102 118 Q116 114 124 130 Q132 148 116 158 Q98 166 86 150 Q76 132 90 122 Q98 116 102 118" fill="#3d2b1f"/>
  <!-- Spot 8: lower-right area -->
  <path d="M166 144 Q180 140 188 156 Q196 174 180 184 Q162 192 150 176 Q140 158 154 148 Q162 142 166 144" fill="#3d2b1f"/>
  <!-- Spot 9: bottom-left area -->
  <path d="M46 166 Q60 162 68 178 Q76 196 60 206 Q42 214 30 198 Q20 180 34 170 Q42 164 46 166" fill="#3d2b1f"/>
  <!-- Spot 10: bottom-center area -->
  <path d="M118 180 Q130 176 136 190 Q142 206 128 214 Q112 220 102 206 Q94 190 108 182 Q114 178 118 180" fill="#3d2b1f"/>
</svg>
