<svg width="200" height="200" viewBox="0 0 200 200" xmlns="http://www.w3.org/2000/svg">
  <!-- Large spots -->
  <ellipse cx="10" cy="16" rx="12" ry="14" fill="#5c4033" transform="rotate(12 10 16)" style="border-radius: 60% 40% 55% 45% / 55% 60% 40% 45%"/>
  <ellipse cx="140" cy="16" rx="16" ry="12" fill="#5c4033" transform="rotate(-6 140 16)"/>
  <ellipse cx="70" cy="36" rx="14" ry="16" fill="#5c4033" transform="rotate(45 70 36)"/>
  <ellipse cx="164" cy="56" rx="13" ry="15" fill="#5c4033" transform="rotate(-12 164 56)"/>
  <ellipse cx="16" cy="84" rx="15" ry="12" fill="#5c4033" transform="rotate(30 16 84)"/>
  <ellipse cx="130" cy="104" rx="12" ry="14" fill="#5c4033" transform="rotate(-20 130 104)"/>
  <ellipse cx="40" cy="136" rx="16" ry="13" fill="#5c4033" transform="rotate(15 40 136)"/>
  <ellipse cx="150" cy="156" rx="13" ry="16" fill="#5c4033" transform="rotate(-35 150 156)"/>
  <ellipse cx="90" cy="170" rx="14" ry="12" fill="#5c4033" transform="rotate(25 90 170)"/>
  <!-- Medium spots -->
  <ellipse cx="36" cy="24" rx="10" ry="11" fill="#5c4033" transform="rotate(-15 36 24)"/>
  <ellipse cx="96" cy="12" rx="11" ry="9" fill="#5c4033" transform="rotate(20 96 12)"/>
  <ellipse cx="176" cy="44" rx="9" ry="11" fill="#5c4033" transform="rotate(-8 176 44)"/>
  <ellipse cx="110" cy="70" rx="10" ry="9" fill="#5c4033" transform="rotate(35 110 70)"/>
  <ellipse cx="60" cy="96" rx="11" ry="10" fill="#5c4033" transform="rotate(-25 60 96)"/>
  <ellipse cx="184" cy="116" rx="9" ry="10" fill="#5c4033" transform="rotate(10 184 116)"/>
  <ellipse cx="100" cy="144" rx="10" ry="11" fill="#5c4033" transform="rotate(-40 100 144)"/>
  <ellipse cx="20" cy="164" rx="11" ry="9" fill="#5c4033" transform="rotate(5 20 164)"/>
  <ellipse cx="170" cy="190" rx="9" ry="10" fill="#5c4033" transform="rotate(-18 170 190)"/>
  <!-- Small spots -->
  <ellipse cx="56" cy="4" rx="7" ry="8" fill="#5c4033" transform="rotate(8 56 4)"/>
  <ellipse cx="120" cy="30" rx="8" ry="7" fill="#5c4033" transform="rotate(-12 120 30)"/>
  <ellipse cx="6" cy="50" rx="7" ry="7" fill="#5c4033" transform="rotate(22 6 50)"/>
  <ellipse cx="84" cy="76" rx="8" ry="8" fill="#5c4033" transform="rotate(-5 84 76)"/>
  <ellipse cx="156" cy="90" rx="7" ry="8" fill="#5c4033" transform="rotate(15 156 90)"/>
  <ellipse cx="76" cy="124" rx="8" ry="7" fill="#5c4033" transform="rotate(-28 76 124)"/>
  <ellipse cx="124" cy="150" rx="7" ry="7" fill="#5c4033" transform="rotate(32 124 150)"/>
  <ellipse cx="56" cy="170" rx="8" ry="8" fill="#5c4033" transform="rotate(-10 56 170)"/>
  <ellipse cx="136" cy="184" rx="7" ry="8" fill="#5c4033" transform="rotate(18 136 184)"/>
  <!-- Extra small spots -->
  <ellipse cx="184" cy="20" rx="4" ry="5" fill="#5c4033"/>
  <ellipse cx="50" cy="64" rx="5" ry="4" fill="#5c4033"/>
  <ellipse cx="30" cy="110" rx="4" ry="4" fill="#5c4033"/>
  <ellipse cx="176" cy="130" rx="5" ry="5" fill="#5c4033"/>
  <ellipse cx="116" cy="160" rx="4" ry="5" fill="#5c4033"/>
</svg>