<svg width="200" height="200" viewBox="0 0 200 200" xmlns="http://www.w3.org/2000/svg">
  <!-- Large spots -->
  <ellipse cx="22" cy="23" rx="12" ry="14" fill="#3d2b1f"/>
  <ellipse cx="156" cy="23" rx="15" ry="13" fill="#3d2b1f"/>
  <ellipse cx="84" cy="44" rx="16" ry="14" fill="#3d2b1f"/>
  <ellipse cx="177" cy="64" rx="13" ry="15" fill="#3d2b1f"/>
  <ellipse cx="31" cy="90" rx="14" ry="12" fill="#3d2b1f"/>
  <ellipse cx="142" cy="111" rx="12" ry="14" fill="#3d2b1f"/>
  <ellipse cx="56" cy="143" rx="15" ry="13" fill="#3d2b1f"/>
  <ellipse cx="163" cy="164" rx="14" ry="16" fill="#3d2b1f"/>
  <ellipse cx="104" cy="176" rx="13" ry="12" fill="#3d2b1f"/>
  <!-- Medium spots -->
  <ellipse cx="46" cy="29" rx="11" ry="9" fill="#3d2b1f"/>
  <ellipse cx="107" cy="17" rx="10" ry="11" fill="#3d2b1f"/>
  <ellipse cx="185" cy="50" rx="9" ry="11" fill="#3d2b1f"/>
  <ellipse cx="120" cy="75" rx="10" ry="9" fill="#3d2b1f"/>
  <ellipse cx="71" cy="101" rx="11" ry="10" fill="#3d2b1f"/>
  <ellipse cx="193" cy="121" rx="9" ry="10" fill="#3d2b1f"/>
  <ellipse cx="110" cy="150" rx="10" ry="11" fill="#3d2b1f"/>
  <ellipse cx="31" cy="169" rx="11" ry="9" fill="#3d2b1f"/>
  <ellipse cx="179" cy="195" rx="9" ry="10" fill="#3d2b1f"/>
  <!-- Small spots -->
  <ellipse cx="63" cy="8" rx="8" ry="7" fill="#3d2b1f"/>
  <ellipse cx="128" cy="34" rx="7" ry="8" fill="#3d2b1f"/>
  <ellipse cx="13" cy="54" rx="7" ry="6" fill="#3d2b1f"/>
  <ellipse cx="92" cy="80" rx="8" ry="8" fill="#3d2b1f"/>
  <ellipse cx="163" cy="94" rx="7" ry="8" fill="#3d2b1f"/>
  <ellipse cx="84" cy="128" rx="8" ry="7" fill="#3d2b1f"/>
  <ellipse cx="131" cy="154" rx="6" ry="8" fill="#3d2b1f"/>
  <ellipse cx="64" cy="174" rx="8" ry="7" fill="#3d2b1f"/>
  <ellipse cx="143" cy="188" rx="7" ry="8" fill="#3d2b1f"/>
  <!-- Extra small spots -->
  <ellipse cx="188" cy="22" rx="5" ry="4" fill="#3d2b1f"/>
  <ellipse cx="55" cy="66" rx="4" ry="5" fill="#3d2b1f"/>
  <ellipse cx="34" cy="112" rx="4" ry="4" fill="#3d2b1f"/>
  <ellipse cx="181" cy="132" rx="5" ry="5" fill="#3d2b1f"/>
  <ellipse cx="120" cy="162" rx="4" ry="5" fill="#3d2b1f"/>
</svg>
