<svg width="200" height="200" viewBox="0 0 200 200" xmlns="http://www.w3.org/2000/svg">
  <!-- Large spots - irregular blob shapes matching CSS border-radius -->
  <path transform="rotate(12 10 16)" d="M10,2 C16,2 22,8 22,16 C22,24 16,30 10,30 C4,30 -2,24 -2,16 C-2,8 4,2 10,2 Z" fill="#5c4033"/>
  <path transform="rotate(-6 140 16)" d="M140,4 C150,2 158,8 160,16 C162,24 154,28 140,28 C126,28 120,22 120,16 C120,10 130,6 140,4 Z" fill="#5c4033"/>
  <path transform="rotate(45 70 36)" d="M70,20 C80,18 86,26 86,36 C86,46 80,54 70,54 C60,54 54,46 54,36 C54,26 60,22 70,20 Z" fill="#5c4033"/>
  <path transform="rotate(-12 164 56)" d="M164,42 C174,40 180,48 180,56 C180,68 172,74 164,72 C154,70 148,64 150,56 C152,48 156,44 164,42 Z" fill="#5c4033"/>
  <path transform="rotate(30 16 84)" d="M16,72 C26,70 34,76 34,84 C34,92 28,98 16,98 C6,98 -2,92 0,84 C2,76 8,74 16,72 Z" fill="#5c4033"/>
  <path transform="rotate(-20 130 104)" d="M130,90 C140,88 146,96 146,104 C146,114 138,120 130,118 C120,116 114,110 116,104 C118,96 122,92 130,90 Z" fill="#5c4033"/>
  <path transform="rotate(15 40 136)" d="M40,122 C52,120 58,128 56,136 C54,146 46,152 40,150 C30,148 24,142 26,136 C28,128 32,124 40,122 Z" fill="#5c4033"/>
  <path transform="rotate(-35 150 156)" d="M150,140 C162,138 168,148 166,156 C164,168 156,174 150,172 C140,170 134,162 136,156 C138,148 142,142 150,140 Z" fill="#5c4033"/>
  <path transform="rotate(25 90 170)" d="M90,158 C102,156 108,162 106,170 C104,180 96,184 90,182 C80,180 74,174 76,170 C78,162 82,160 90,158 Z" fill="#5c4033"/>
  <!-- Medium spots -->
  <path transform="rotate(-15 36 24)" d="M36,14 C44,12 50,18 48,24 C46,32 40,36 36,34 C28,32 24,28 26,24 C28,18 30,16 36,14 Z" fill="#5c4033"/>
  <path transform="rotate(20 96 12)" d="M96,4 C104,2 110,6 108,12 C106,18 100,22 96,20 C88,18 84,14 86,12 C88,6 90,6 96,4 Z" fill="#5c4033"/>
  <path transform="rotate(-8 176 44)" d="M176,34 C184,32 190,38 188,44 C186,52 180,56 176,54 C168,52 164,48 166,44 C168,38 170,36 176,34 Z" fill="#5c4033"/>
  <path transform="rotate(35 110 70)" d="M110,62 C118,60 124,64 122,70 C120,78 114,82 110,80 C102,78 98,74 100,70 C102,64 104,64 110,62 Z" fill="#5c4033"/>
  <path transform="rotate(-25 60 96)" d="M60,86 C68,84 74,90 72,96 C70,104 64,108 60,106 C52,104 48,100 50,96 C52,90 54,88 60,86 Z" fill="#5c4033"/>
  <path transform="rotate(10 184 116)" d="M184,106 C192,104 198,110 196,116 C194,124 188,128 184,126 C176,124 172,120 174,116 C176,110 178,108 184,106 Z" fill="#5c4033"/>
  <path transform="rotate(-40 100 144)" d="M100,134 C108,132 114,138 112,144 C110,152 104,156 100,154 C92,152 88,148 90,144 C92,138 94,136 100,134 Z" fill="#5c4033"/>
  <path transform="rotate(5 20 164)" d="M20,154 C28,152 34,158 32,164 C30,172 24,176 20,174 C12,172 8,168 10,164 C12,158 14,156 20,154 Z" fill="#5c4033"/>
  <path transform="rotate(-18 170 190)" d="M170,180 C178,178 184,184 182,190 C180,198 174,202 170,200 C162,198 158,194 160,190 C162,184 164,182 170,180 Z" fill="#5c4033"/>
  <!-- Small spots -->
  <path transform="rotate(8 56 4)" d="M56,-2 C62,-4 66,0 64,4 C62,10 58,12 56,10 C50,8 48,6 50,4 C52,0 52,0 56,-2 Z" fill="#5c4033"/>
  <path transform="rotate(-12 120 30)" d="M120,24 C126,22 130,26 128,30 C126,36 122,38 120,36 C114,34 112,32 114,30 C116,26 116,26 120,24 Z" fill="#5c4033"/>
  <path transform="rotate(22 6 50)" d="M6,44 C12,42 16,46 14,50 C12,56 8,58 6,56 C0,54 -2,52 0,50 C2,46 2,46 6,44 Z" fill="#5c4033"/>
  <path transform="rotate(-5 84 76)" d="M84,68 C92,66 96,72 94,76 C92,84 86,86 84,84 C76,82 74,80 76,76 C78,70 80,70 84,68 Z" fill="#5c4033"/>
  <path transform="rotate(15 156 90)" d="M156,84 C162,82 166,86 164,90 C162,96 158,98 156,96 C150,94 148,92 150,90 C152,86 152,86 156,84 Z" fill="#5c4033"/>
  <path transform="rotate(-28 76 124)" d="M76,118 C82,116 86,120 84,124 C82,130 78,132 76,130 C70,128 68,126 70,124 C72,120 72,120 76,118 Z" fill="#5c4033"/>
  <path transform="rotate(32 124 150)" d="M124,144 C130,142 134,146 132,150 C130,156 126,158 124,156 C118,154 116,152 118,150 C120,146 120,146 124,144 Z" fill="#5c4033"/>
  <path transform="rotate(-10 56 170)" d="M56,162 C64,160 68,166 66,170 C64,178 58,180 56,178 C48,176 46,174 48,170 C50,164 52,164 56,162 Z" fill="#5c4033"/>
  <path transform="rotate(18 136 184)" d="M136,178 C142,176 146,180 144,184 C142,190 138,192 136,190 C130,188 128,186 130,184 C132,180 132,180 136,178 Z" fill="#5c4033"/>
  <!-- Extra small spots -->
  <ellipse cx="184" cy="20" rx="4" ry="5" fill="#5c4033"/>
  <ellipse cx="50" cy="64" rx="5" ry="4" fill="#5c4033"/>
  <ellipse cx="30" cy="110" rx="4" ry="4" fill="#5c4033"/>
  <ellipse cx="176" cy="130" rx="5" ry="5" fill="#5c4033"/>
  <ellipse cx="116" cy="160" rx="4" ry="5" fill="#5c4033"/>
</svg>