<svg width="200" height="200" viewBox="0 0 200 200" xmlns="http://www.w3.org/2000/svg">
  <!-- Large spots -->
  <ellipse cx="10" cy="16" rx="12" ry="14" fill="#3d2b1f"/>
  <ellipse cx="140" cy="16" rx="16" ry="12" fill="#3d2b1f"/>
  <ellipse cx="70" cy="36" rx="14" ry="16" fill="#3d2b1f"/>
  <ellipse cx="164" cy="56" rx="13" ry="15" fill="#3d2b1f"/>
  <ellipse cx="16" cy="84" rx="15" ry="12" fill="#3d2b1f"/>
  <ellipse cx="130" cy="104" rx="12" ry="14" fill="#3d2b1f"/>
  <ellipse cx="40" cy="136" rx="16" ry="13" fill="#3d2b1f"/>
  <ellipse cx="150" cy="156" rx="13" ry="16" fill="#3d2b1f"/>
  <ellipse cx="90" cy="170" rx="14" ry="12" fill="#3d2b1f"/>
  <!-- Medium spots -->
  <ellipse cx="36" cy="24" rx="10" ry="11" fill="#3d2b1f"/>
  <ellipse cx="96" cy="12" rx="11" ry="9" fill="#3d2b1f"/>
  <ellipse cx="176" cy="44" rx="9" ry="11" fill="#3d2b1f"/>
  <ellipse cx="110" cy="70" rx="10" ry="9" fill="#3d2b1f"/>
  <ellipse cx="60" cy="96" rx="11" ry="10" fill="#3d2b1f"/>
  <ellipse cx="184" cy="116" rx="9" ry="10" fill="#3d2b1f"/>
  <ellipse cx="100" cy="144" rx="10" ry="11" fill="#3d2b1f"/>
  <ellipse cx="20" cy="164" rx="11" ry="9" fill="#3d2b1f"/>
  <ellipse cx="170" cy="190" rx="9" ry="10" fill="#3d2b1f"/>
  <!-- Small spots -->
  <ellipse cx="56" cy="4" rx="7" ry="8" fill="#3d2b1f"/>
  <ellipse cx="120" cy="30" rx="8" ry="7" fill="#3d2b1f"/>
  <ellipse cx="6" cy="50" rx="7" ry="7" fill="#3d2b1f"/>
  <ellipse cx="84" cy="76" rx="8" ry="8" fill="#3d2b1f"/>
  <ellipse cx="156" cy="90" rx="7" ry="8" fill="#3d2b1f"/>
  <ellipse cx="76" cy="124" rx="8" ry="7" fill="#3d2b1f"/>
  <ellipse cx="124" cy="150" rx="7" ry="7" fill="#3d2b1f"/>
  <ellipse cx="56" cy="170" rx="8" ry="8" fill="#3d2b1f"/>
  <ellipse cx="136" cy="184" rx="7" ry="8" fill="#3d2b1f"/>
  <!-- Extra small spots -->
  <ellipse cx="184" cy="20" rx="4" ry="5" fill="#3d2b1f"/>
  <ellipse cx="50" cy="64" rx="5" ry="4" fill="#3d2b1f"/>
  <ellipse cx="30" cy="110" rx="4" ry="4" fill="#3d2b1f"/>
  <ellipse cx="176" cy="130" rx="5" ry="5" fill="#3d2b1f"/>
  <ellipse cx="116" cy="160" rx="4" ry="5" fill="#3d2b1f"/>
</svg>
